<svg xmlns="http://www.w3.org/2000/svg" viewBox="0 0 320 180">
  <rect width="320" height="180" fill="#F2F2F2"/>
  <rect x="20" y="14" width="280" height="50" rx="6" fill="#161616"/>
  <rect x="292" y="52" width="6" height="6" fill="#f97316"/>
  <g fill="#161616">
    <rect x="20" y="76" width="80" height="9" rx="2"/>
    <rect x="20" y="91" width="55" height="3" rx="1.5" fill="#9ca3af"/>
    <rect x="20" y="100" width="70" height="3" rx="1.5" fill="#9ca3af"/>
    <rect x="20" y="118" width="55" height="14" rx="4"/>
  </g>
  <rect x="68" y="123" width="4" height="4" fill="#f97316"/>
  <g fill="#9ca3af">
    <rect x="120" y="76" width="180" height="4" rx="2"/>
    <rect x="120" y="86" width="180" height="3" rx="1.5"/>
    <rect x="120" y="93" width="170" height="3" rx="1.5"/>
    <rect x="120" y="100" width="180" height="3" rx="1.5"/>
    <rect x="120" y="107" width="160" height="3" rx="1.5"/>
    <rect x="120" y="121" width="180" height="3" rx="1.5"/>
    <rect x="120" y="128" width="170" height="3" rx="1.5"/>
    <rect x="120" y="135" width="180" height="3" rx="1.5"/>
    <rect x="120" y="142" width="140" height="3" rx="1.5"/>
  </g>
</svg>
