<svg width="512" height="512" viewBox="0 0 512 512" fill="none" xmlns="http://www.w3.org/2000/svg">
<rect width="512" height="512" rx="96" fill="#161616"/>
<!-- Lettermark (C + square) scaled and centered: original viewBox 0 0 40 60, content spans x:0-39 y:23-51 -->
<g transform="translate(66, 106) scale(9.5) translate(0, -23)">
  <path d="M13.92 50.576C11.296 50.576 8.928 49.984 6.816 48.8C4.736 47.584 3.072 45.936 1.824 43.856C0.608 41.776 0 39.44 0 36.848C0 34.256 0.608 31.936 1.824 29.888C3.04 27.808 4.704 26.176 6.816 24.992C8.928 23.808 11.296 23.216 13.92 23.216C15.872 23.216 17.68 23.552 19.344 24.224C21.008 24.896 22.432 25.84 23.616 27.056C24.8 28.24 25.648 29.648 26.16 31.28L19.92 33.968C19.472 32.656 18.704 31.616 17.616 30.848C16.56 30.08 15.328 29.696 13.92 29.696C12.672 29.696 11.552 30 10.56 30.608C9.6 31.216 8.832 32.064 8.256 33.152C7.712 34.24 7.44 35.488 7.44 36.896C7.44 38.304 7.712 39.552 8.256 40.64C8.832 41.728 9.6 42.576 10.56 43.184C11.552 43.792 12.672 44.096 13.92 44.096C15.36 44.096 16.608 43.712 17.664 42.944C18.72 42.176 19.472 41.136 19.92 39.824L26.16 42.56C25.68 44.096 24.848 45.472 23.664 46.688C22.48 47.904 21.056 48.864 19.392 49.568C17.728 50.24 15.904 50.576 13.92 50.576Z" fill="#F2F2F2"/>
  <rect x="29" y="40" width="10" height="10" fill="#f97316"/>
</g>
</svg>
