<svg width="190" height="60" viewBox="0 0 190 60" fill="none" xmlns="http://www.w3.org/2000/svg">
<path d="M21.504 50.576C18.88 50.576 16.512 49.984 14.4 48.8C12.32 47.584 10.656 45.936 9.408 43.856C8.192 41.776 7.584 39.44 7.584 36.848C7.584 34.256 8.192 31.936 9.408 29.888C10.624 27.808 12.288 26.176 14.4 24.992C16.512 23.808 18.88 23.216 21.504 23.216C23.456 23.216 25.264 23.552 26.928 24.224C28.592 24.896 30.016 25.84 31.2 27.056C32.384 28.24 33.232 29.648 33.744 31.28L27.504 33.968C27.056 32.656 26.288 31.616 25.2 30.848C24.144 30.08 22.912 29.696 21.504 29.696C20.256 29.696 19.136 30 18.144 30.608C17.184 31.216 16.416 32.064 15.84 33.152C15.296 34.24 15.024 35.488 15.024 36.896C15.024 38.304 15.296 39.552 15.84 40.64C16.416 41.728 17.184 42.576 18.144 43.184C19.136 43.792 20.256 44.096 21.504 44.096C22.944 44.096 24.192 43.712 25.248 42.944C26.304 42.176 27.056 41.136 27.504 39.824L33.744 42.56C33.264 44.096 32.432 45.472 31.248 46.688C30.064 47.904 28.64 48.864 26.976 49.568C25.312 50.24 23.488 50.576 21.504 50.576ZM50.9918 50.576C48.3998 50.576 46.0318 49.984 43.8878 48.8C41.7758 47.616 40.0798 46 38.7998 43.952C37.5518 41.872 36.9277 39.52 36.9277 36.896C36.9277 34.24 37.5518 31.888 38.7998 29.84C40.0798 27.792 41.7758 26.176 43.8878 24.992C46.0318 23.808 48.3998 23.216 50.9918 23.216C53.5838 23.216 55.9358 23.808 58.0478 24.992C60.1598 26.176 61.8398 27.792 63.0878 29.84C64.3678 31.888 65.0078 34.24 65.0078 36.896C65.0078 39.52 64.3678 41.872 63.0878 43.952C61.8398 46 60.1598 47.616 58.0478 48.8C55.9358 49.984 53.5838 50.576 50.9918 50.576ZM50.9918 44.096C52.3038 44.096 53.4398 43.792 54.3998 43.184C55.3918 42.576 56.1598 41.728 56.7038 40.64C57.2798 39.552 57.5678 38.304 57.5678 36.896C57.5678 35.488 57.2798 34.256 56.7038 33.2C56.1598 32.112 55.3918 31.264 54.3998 30.656C53.4398 30.016 52.3038 29.696 50.9918 29.696C49.6798 29.696 48.5278 30.016 47.5358 30.656C46.5438 31.264 45.7598 32.112 45.1838 33.2C44.6398 34.256 44.3678 35.488 44.3678 36.896C44.3678 38.304 44.6398 39.552 45.1838 40.64C45.7598 41.728 46.5438 42.576 47.5358 43.184C48.5278 43.792 49.6798 44.096 50.9918 44.096ZM69.2494 50V13.664H76.4494V28.976L75.5854 27.824C76.1934 26.256 77.1694 25.104 78.5134 24.368C79.8894 23.6 81.4894 23.216 83.3134 23.216C85.2974 23.216 87.0254 23.632 88.4974 24.464C90.0014 25.296 91.1694 26.464 92.0014 27.968C92.8334 29.44 93.2494 31.168 93.2494 33.152V50H86.0494V34.688C86.0494 33.664 85.8414 32.784 85.4254 32.048C85.0414 31.312 84.4814 30.736 83.7454 30.32C83.0414 29.904 82.2094 29.696 81.2494 29.696C80.3214 29.696 79.4894 29.904 78.7534 30.32C78.0174 30.736 77.4414 31.312 77.0254 32.048C76.6414 32.784 76.4494 33.664 76.4494 34.688V50H69.2494ZM110.992 50.576C108.4 50.576 106.032 49.984 103.888 48.8C101.776 47.616 100.08 46 98.7998 43.952C97.5518 41.872 96.9277 39.52 96.9277 36.896C96.9277 34.24 97.5518 31.888 98.7998 29.84C100.08 27.792 101.776 26.176 103.888 24.992C106.032 23.808 108.4 23.216 110.992 23.216C113.584 23.216 115.936 23.808 118.048 24.992C120.16 26.176 121.84 27.792 123.088 29.84C124.368 31.888 125.008 34.24 125.008 36.896C125.008 39.52 124.368 41.872 123.088 43.952C121.84 46 120.16 47.616 118.048 48.8C115.936 49.984 113.584 50.576 110.992 50.576ZM110.992 44.096C112.304 44.096 113.44 43.792 114.4 43.184C115.392 42.576 116.16 41.728 116.704 40.64C117.28 39.552 117.568 38.304 117.568 36.896C117.568 35.488 117.28 34.256 116.704 33.2C116.16 32.112 115.392 31.264 114.4 30.656C113.44 30.016 112.304 29.696 110.992 29.696C109.68 29.696 108.528 30.016 107.536 30.656C106.544 31.264 105.76 32.112 105.184 33.2C104.64 34.256 104.368 35.488 104.368 36.896C104.368 38.304 104.64 39.552 105.184 40.64C105.76 41.728 106.544 42.576 107.536 43.184C108.528 43.792 109.68 44.096 110.992 44.096ZM139.521 50.576C136.641 50.576 134.129 49.904 131.985 48.56C129.873 47.184 128.433 45.344 127.665 43.04L132.945 40.544C133.617 41.952 134.529 43.056 135.681 43.856C136.833 44.656 138.113 45.056 139.521 45.056C140.545 45.056 141.329 44.848 141.873 44.432C142.417 44.016 142.689 43.44 142.689 42.704C142.689 42.32 142.593 42 142.401 41.744C142.209 41.456 141.921 41.2 141.537 40.976C141.153 40.752 140.673 40.56 140.097 40.4L135.633 39.152C133.489 38.544 131.841 37.568 130.689 36.224C129.537 34.848 128.961 33.232 128.961 31.376C128.961 29.744 129.377 28.32 130.209 27.104C131.041 25.888 132.209 24.944 133.713 24.272C135.217 23.568 136.945 23.216 138.897 23.216C141.457 23.216 143.697 23.824 145.617 25.04C147.569 26.224 148.945 27.904 149.745 30.08L144.417 32.576C144.033 31.488 143.329 30.624 142.305 29.984C141.313 29.312 140.177 28.976 138.897 28.976C137.969 28.976 137.233 29.168 136.689 29.552C136.177 29.936 135.921 30.464 135.921 31.136C135.921 31.488 136.017 31.808 136.209 32.096C136.401 32.384 136.705 32.64 137.121 32.864C137.569 33.088 138.113 33.296 138.753 33.488L142.929 34.736C145.105 35.376 146.769 36.352 147.921 37.664C149.073 38.944 149.649 40.528 149.649 42.416C149.649 44.048 149.217 45.472 148.353 46.688C147.521 47.904 146.353 48.864 144.849 49.568C143.345 50.24 141.569 50.576 139.521 50.576ZM166.577 50.288C163.409 50.288 160.945 49.44 159.185 47.744C157.457 46.016 156.593 43.616 156.593 40.544V30.032H152.177V23.792H152.417C153.761 23.792 154.785 23.456 155.489 22.784C156.225 22.112 156.593 21.104 156.593 19.76V17.84H163.793V23.792H169.937V30.032H163.793V40.064C163.793 40.96 163.953 41.712 164.273 42.32C164.593 42.896 165.089 43.328 165.761 43.616C166.433 43.904 167.265 44.048 168.257 44.048C168.481 44.048 168.737 44.032 169.025 44C169.313 43.968 169.617 43.936 169.937 43.904V50C169.457 50.064 168.913 50.128 168.305 50.192C167.697 50.256 167.121 50.288 166.577 50.288Z" fill="#161616"/>
<rect x="174" y="40" width="10" height="10" fill="#f97316"/>
</svg>
